<mxfile host="Electron" agent="Mozilla/5.0 (Windows NT 10.0; Win64; x64) AppleWebKit/537.36 (KHTML, like Gecko) draw.io/28.1.2 Chrome/138.0.7204.243 Electron/37.4.0 Safari/537.36" version="28.1.2">
  <diagram name="Page-1" id="j_Ry20Sw6it4UZxFfxdf">
    <mxGraphModel dx="1028" dy="707" grid="1" gridSize="10" guides="1" tooltips="1" connect="1" arrows="1" fold="1" page="1" pageScale="1" pageWidth="2336" pageHeight="1654" math="0" shadow="0">
      <root>
        <mxCell id="0" />
        <mxCell id="1" parent="0" />
        <mxCell id="IdlJoa7s4EMgATmkJgzL-1" value="Organizer Dashboard" style="rounded=0;whiteSpace=wrap;html=1;" parent="1" vertex="1">
          <mxGeometry x="550" y="10" width="120" height="60" as="geometry" />
        </mxCell>
        <mxCell id="IdlJoa7s4EMgATmkJgzL-3" value="Create Event&lt;div&gt;US 02.01.01, US 02.01.04&lt;/div&gt;" style="rounded=0;whiteSpace=wrap;html=1;" parent="1" vertex="1">
          <mxGeometry x="320" y="280" width="120" height="60" as="geometry" />
        </mxCell>
        <mxCell id="IdlJoa7s4EMgATmkJgzL-4" value="Upload Event Poster&lt;div&gt;US 02.04.01&lt;/div&gt;" style="rounded=0;whiteSpace=wrap;html=1;" parent="1" vertex="1">
          <mxGeometry x="320" y="400" width="120" height="60" as="geometry" />
        </mxCell>
        <mxCell id="IdlJoa7s4EMgATmkJgzL-5" value="Set Registration Perios&amp;nbsp;&lt;div&gt;US 02.01.04&lt;/div&gt;" style="rounded=0;whiteSpace=wrap;html=1;" parent="1" vertex="1">
          <mxGeometry x="320" y="520" width="120" height="60" as="geometry" />
        </mxCell>
        <mxCell id="IdlJoa7s4EMgATmkJgzL-6" value="Enable Geolocation" style="rhombus;whiteSpace=wrap;html=1;" parent="1" vertex="1">
          <mxGeometry x="330" y="640" width="80" height="80" as="geometry" />
        </mxCell>
        <mxCell id="IdlJoa7s4EMgATmkJgzL-7" value="Limit Waiting List" style="rhombus;whiteSpace=wrap;html=1;" parent="1" vertex="1">
          <mxGeometry x="330" y="800" width="80" height="80" as="geometry" />
        </mxCell>
        <mxCell id="IdlJoa7s4EMgATmkJgzL-8" value="Enable Geolocation&amp;nbsp;&lt;div&gt;US 02.02.03&lt;/div&gt;" style="rounded=0;whiteSpace=wrap;html=1;" parent="1" vertex="1">
          <mxGeometry x="140" y="740" width="120" height="60" as="geometry" />
        </mxCell>
        <mxCell id="IdlJoa7s4EMgATmkJgzL-9" value="Set Max Entrant&lt;div&gt;US 02.03.01&lt;/div&gt;" style="rounded=0;whiteSpace=wrap;html=1;" parent="1" vertex="1">
          <mxGeometry x="300" y="930" width="120" height="60" as="geometry" />
        </mxCell>
        <mxCell id="IdlJoa7s4EMgATmkJgzL-10" value="Generate QR Code&lt;div&gt;US 02.01.01&lt;/div&gt;" style="rounded=0;whiteSpace=wrap;html=1;" parent="1" vertex="1">
          <mxGeometry x="300" y="1030" width="120" height="60" as="geometry" />
        </mxCell>
        <mxCell id="IdlJoa7s4EMgATmkJgzL-11" value="Event Published&amp;nbsp;" style="rounded=0;whiteSpace=wrap;html=1;" parent="1" vertex="1">
          <mxGeometry x="300" y="1130" width="120" height="60" as="geometry" />
        </mxCell>
        <mxCell id="IdlJoa7s4EMgATmkJgzL-12" value="Action" style="rhombus;whiteSpace=wrap;html=1;" parent="1" vertex="1">
          <mxGeometry x="560" y="140" width="80" height="80" as="geometry" />
        </mxCell>
        <mxCell id="IdlJoa7s4EMgATmkJgzL-13" value="" style="endArrow=classic;html=1;rounded=0;exitX=0;exitY=0.5;exitDx=0;exitDy=0;entryX=0.75;entryY=0;entryDx=0;entryDy=0;" parent="1" source="IdlJoa7s4EMgATmkJgzL-12" target="IdlJoa7s4EMgATmkJgzL-3" edge="1">
          <mxGeometry width="50" height="50" relative="1" as="geometry">
            <mxPoint x="550" y="179.5" as="sourcePoint" />
            <mxPoint x="420" y="179.5" as="targetPoint" />
          </mxGeometry>
        </mxCell>
        <mxCell id="IdlJoa7s4EMgATmkJgzL-14" value="" style="endArrow=classic;html=1;rounded=0;exitX=0.5;exitY=1;exitDx=0;exitDy=0;entryX=0.5;entryY=0;entryDx=0;entryDy=0;" parent="1" source="IdlJoa7s4EMgATmkJgzL-4" target="IdlJoa7s4EMgATmkJgzL-5" edge="1">
          <mxGeometry width="50" height="50" relative="1" as="geometry">
            <mxPoint x="540" y="690" as="sourcePoint" />
            <mxPoint x="590" y="640" as="targetPoint" />
          </mxGeometry>
        </mxCell>
        <mxCell id="IdlJoa7s4EMgATmkJgzL-15" value="" style="endArrow=classic;html=1;rounded=0;exitX=0.5;exitY=1;exitDx=0;exitDy=0;" parent="1" source="IdlJoa7s4EMgATmkJgzL-3" target="IdlJoa7s4EMgATmkJgzL-4" edge="1">
          <mxGeometry width="50" height="50" relative="1" as="geometry">
            <mxPoint x="540" y="690" as="sourcePoint" />
            <mxPoint x="590" y="640" as="targetPoint" />
          </mxGeometry>
        </mxCell>
        <mxCell id="IdlJoa7s4EMgATmkJgzL-16" value="" style="endArrow=classic;html=1;rounded=0;" parent="1" target="IdlJoa7s4EMgATmkJgzL-6" edge="1">
          <mxGeometry width="50" height="50" relative="1" as="geometry">
            <mxPoint x="370" y="581" as="sourcePoint" />
            <mxPoint x="570" y="620" as="targetPoint" />
          </mxGeometry>
        </mxCell>
        <mxCell id="IdlJoa7s4EMgATmkJgzL-17" value="" style="endArrow=classic;html=1;rounded=0;exitX=0;exitY=0.5;exitDx=0;exitDy=0;entryX=0.633;entryY=-0.057;entryDx=0;entryDy=0;entryPerimeter=0;" parent="1" source="IdlJoa7s4EMgATmkJgzL-6" target="IdlJoa7s4EMgATmkJgzL-8" edge="1">
          <mxGeometry width="50" height="50" relative="1" as="geometry">
            <mxPoint x="540" y="690" as="sourcePoint" />
            <mxPoint x="590" y="640" as="targetPoint" />
          </mxGeometry>
        </mxCell>
        <mxCell id="IdlJoa7s4EMgATmkJgzL-18" value="" style="endArrow=classic;html=1;rounded=0;exitX=0.393;exitY=1.05;exitDx=0;exitDy=0;exitPerimeter=0;entryX=0;entryY=0.5;entryDx=0;entryDy=0;" parent="1" source="IdlJoa7s4EMgATmkJgzL-8" target="IdlJoa7s4EMgATmkJgzL-7" edge="1">
          <mxGeometry width="50" height="50" relative="1" as="geometry">
            <mxPoint x="540" y="990" as="sourcePoint" />
            <mxPoint x="590" y="940" as="targetPoint" />
          </mxGeometry>
        </mxCell>
        <mxCell id="IdlJoa7s4EMgATmkJgzL-19" value="" style="endArrow=classic;html=1;rounded=0;exitX=1;exitY=0.5;exitDx=0;exitDy=0;entryX=1;entryY=0.5;entryDx=0;entryDy=0;" parent="1" source="IdlJoa7s4EMgATmkJgzL-6" target="IdlJoa7s4EMgATmkJgzL-7" edge="1">
          <mxGeometry width="50" height="50" relative="1" as="geometry">
            <mxPoint x="540" y="990" as="sourcePoint" />
            <mxPoint x="590" y="940" as="targetPoint" />
          </mxGeometry>
        </mxCell>
        <mxCell id="IdlJoa7s4EMgATmkJgzL-20" value="" style="endArrow=classic;html=1;rounded=0;" parent="1" source="IdlJoa7s4EMgATmkJgzL-7" edge="1">
          <mxGeometry width="50" height="50" relative="1" as="geometry">
            <mxPoint x="430" y="910" as="sourcePoint" />
            <mxPoint x="510" y="980" as="targetPoint" />
          </mxGeometry>
        </mxCell>
        <mxCell id="IdlJoa7s4EMgATmkJgzL-21" value="" style="endArrow=classic;html=1;rounded=0;entryX=1;entryY=0.5;entryDx=0;entryDy=0;" parent="1" target="IdlJoa7s4EMgATmkJgzL-10" edge="1">
          <mxGeometry width="50" height="50" relative="1" as="geometry">
            <mxPoint x="510" y="980" as="sourcePoint" />
            <mxPoint x="590" y="940" as="targetPoint" />
          </mxGeometry>
        </mxCell>
        <mxCell id="IdlJoa7s4EMgATmkJgzL-22" value="No" style="text;html=1;align=center;verticalAlign=middle;whiteSpace=wrap;rounded=0;" parent="1" vertex="1">
          <mxGeometry x="480" y="920" width="60" height="30" as="geometry" />
        </mxCell>
        <mxCell id="IdlJoa7s4EMgATmkJgzL-23" value="" style="endArrow=classic;html=1;rounded=0;exitX=0.5;exitY=1;exitDx=0;exitDy=0;" parent="1" source="IdlJoa7s4EMgATmkJgzL-7" edge="1">
          <mxGeometry width="50" height="50" relative="1" as="geometry">
            <mxPoint x="540" y="990" as="sourcePoint" />
            <mxPoint x="370" y="930" as="targetPoint" />
          </mxGeometry>
        </mxCell>
        <mxCell id="IdlJoa7s4EMgATmkJgzL-24" value="" style="endArrow=classic;html=1;rounded=0;exitX=0.5;exitY=1;exitDx=0;exitDy=0;entryX=0.5;entryY=0;entryDx=0;entryDy=0;" parent="1" source="IdlJoa7s4EMgATmkJgzL-9" target="IdlJoa7s4EMgATmkJgzL-10" edge="1">
          <mxGeometry width="50" height="50" relative="1" as="geometry">
            <mxPoint x="710" y="900" as="sourcePoint" />
            <mxPoint x="760" y="850" as="targetPoint" />
          </mxGeometry>
        </mxCell>
        <mxCell id="IdlJoa7s4EMgATmkJgzL-25" value="" style="endArrow=classic;html=1;rounded=0;exitX=0.5;exitY=1;exitDx=0;exitDy=0;entryX=0.5;entryY=0;entryDx=0;entryDy=0;" parent="1" source="IdlJoa7s4EMgATmkJgzL-10" target="IdlJoa7s4EMgATmkJgzL-11" edge="1">
          <mxGeometry width="50" height="50" relative="1" as="geometry">
            <mxPoint x="700" y="1010" as="sourcePoint" />
            <mxPoint x="750" y="960" as="targetPoint" />
          </mxGeometry>
        </mxCell>
        <mxCell id="IdlJoa7s4EMgATmkJgzL-26" value="No" style="text;html=1;align=center;verticalAlign=middle;whiteSpace=wrap;rounded=0;" parent="1" vertex="1">
          <mxGeometry x="410" y="755" width="60" height="30" as="geometry" />
        </mxCell>
        <mxCell id="IdlJoa7s4EMgATmkJgzL-27" value="Yes" style="text;html=1;align=center;verticalAlign=middle;whiteSpace=wrap;rounded=0;" parent="1" vertex="1">
          <mxGeometry x="240" y="665" width="60" height="30" as="geometry" />
        </mxCell>
        <mxCell id="IdlJoa7s4EMgATmkJgzL-29" value="" style="endArrow=classic;html=1;rounded=0;entryX=0.52;entryY=0.088;entryDx=0;entryDy=0;entryPerimeter=0;exitX=0.423;exitY=0.99;exitDx=0;exitDy=0;exitPerimeter=0;" parent="1" source="IdlJoa7s4EMgATmkJgzL-1" target="IdlJoa7s4EMgATmkJgzL-12" edge="1">
          <mxGeometry width="50" height="50" relative="1" as="geometry">
            <mxPoint x="600" y="100" as="sourcePoint" />
            <mxPoint x="650" y="50" as="targetPoint" />
          </mxGeometry>
        </mxCell>
        <mxCell id="IdlJoa7s4EMgATmkJgzL-30" value="Create Events" style="text;html=1;align=center;verticalAlign=middle;whiteSpace=wrap;rounded=0;" parent="1" vertex="1">
          <mxGeometry x="440" y="180" width="60" height="30" as="geometry" />
        </mxCell>
        <mxCell id="IdlJoa7s4EMgATmkJgzL-32" value="Event Managemnet Screen&amp;nbsp;" style="rounded=0;whiteSpace=wrap;html=1;" parent="1" vertex="1">
          <mxGeometry x="670" y="280" width="120" height="60" as="geometry" />
        </mxCell>
        <mxCell id="IdlJoa7s4EMgATmkJgzL-33" value="Management Action" style="rhombus;whiteSpace=wrap;html=1;" parent="1" vertex="1">
          <mxGeometry x="690" y="370" width="100" height="80" as="geometry" />
        </mxCell>
        <mxCell id="IdlJoa7s4EMgATmkJgzL-34" value="View Entrants List&lt;div&gt;US 02.02.01&lt;/div&gt;" style="rounded=0;whiteSpace=wrap;html=1;" parent="1" vertex="1">
          <mxGeometry x="480" y="480" width="120" height="60" as="geometry" />
        </mxCell>
        <mxCell id="IdlJoa7s4EMgATmkJgzL-35" value="Entrants Map View&lt;div&gt;US 02.02.02&lt;/div&gt;" style="rounded=0;whiteSpace=wrap;html=1;" parent="1" vertex="1">
          <mxGeometry x="610" y="480" width="120" height="60" as="geometry" />
        </mxCell>
        <mxCell id="IdlJoa7s4EMgATmkJgzL-36" value="Update Event Poster&lt;div&gt;US 02.04.02&lt;/div&gt;" style="rounded=0;whiteSpace=wrap;html=1;" parent="1" vertex="1">
          <mxGeometry x="740" y="480" width="120" height="60" as="geometry" />
        </mxCell>
        <mxCell id="IdlJoa7s4EMgATmkJgzL-37" value="Lottery Draw Screen&amp;nbsp;&lt;div&gt;US 02.05.02&lt;/div&gt;" style="rounded=0;whiteSpace=wrap;html=1;" parent="1" vertex="1">
          <mxGeometry x="880" y="480" width="120" height="60" as="geometry" />
        </mxCell>
        <mxCell id="IdlJoa7s4EMgATmkJgzL-38" value="Set Number to Sample US 02.05.02" style="rounded=0;whiteSpace=wrap;html=1;" parent="1" vertex="1">
          <mxGeometry x="880" y="570" width="120" height="60" as="geometry" />
        </mxCell>
        <mxCell id="IdlJoa7s4EMgATmkJgzL-39" value="Run Lottery Draw" style="rounded=0;whiteSpace=wrap;html=1;" parent="1" vertex="1">
          <mxGeometry x="880" y="665" width="120" height="60" as="geometry" />
        </mxCell>
        <mxCell id="IdlJoa7s4EMgATmkJgzL-40" value="Send Win Notification&amp;nbsp;&lt;div&gt;US 01.04.01&lt;/div&gt;" style="rounded=0;whiteSpace=wrap;html=1;" parent="1" vertex="1">
          <mxGeometry x="880" y="760" width="120" height="60" as="geometry" />
        </mxCell>
        <mxCell id="IdlJoa7s4EMgATmkJgzL-41" value="Send Lost Notification&amp;nbsp;&lt;div&gt;US 01.04.02&lt;/div&gt;" style="rounded=0;whiteSpace=wrap;html=1;" parent="1" vertex="1">
          <mxGeometry x="880" y="850" width="120" height="60" as="geometry" />
        </mxCell>
        <mxCell id="IdlJoa7s4EMgATmkJgzL-42" value="Monitor Responses" style="rounded=0;whiteSpace=wrap;html=1;" parent="1" vertex="1">
          <mxGeometry x="880" y="950" width="120" height="60" as="geometry" />
        </mxCell>
        <mxCell id="IdlJoa7s4EMgATmkJgzL-43" value="Some Declined" style="rhombus;whiteSpace=wrap;html=1;" parent="1" vertex="1">
          <mxGeometry x="900" y="1040" width="80" height="80" as="geometry" />
        </mxCell>
        <mxCell id="IdlJoa7s4EMgATmkJgzL-44" value="Draw Replacement&amp;nbsp;&lt;div&gt;US 02.05.03&lt;/div&gt;" style="rounded=0;whiteSpace=wrap;html=1;" parent="1" vertex="1">
          <mxGeometry x="767" y="1150" width="120" height="60" as="geometry" />
        </mxCell>
        <mxCell id="IdlJoa7s4EMgATmkJgzL-45" value="Notify Replacement" style="rounded=0;whiteSpace=wrap;html=1;" parent="1" vertex="1">
          <mxGeometry x="767" y="1240" width="120" height="60" as="geometry" />
        </mxCell>
        <mxCell id="IdlJoa7s4EMgATmkJgzL-46" value="Entrant List Screen&amp;nbsp;&lt;div&gt;US 02.06.01 - 03&lt;/div&gt;" style="rounded=0;whiteSpace=wrap;html=1;" parent="1" vertex="1">
          <mxGeometry x="1130" y="840" width="120" height="60" as="geometry" />
        </mxCell>
        <mxCell id="IdlJoa7s4EMgATmkJgzL-47" value="List Action" style="rhombus;whiteSpace=wrap;html=1;" parent="1" vertex="1">
          <mxGeometry x="1160" y="940" width="80" height="80" as="geometry" />
        </mxCell>
        <mxCell id="IdlJoa7s4EMgATmkJgzL-48" value="Cancel Entrant&amp;nbsp;&lt;div&gt;US 02.06.04&lt;/div&gt;" style="rounded=0;whiteSpace=wrap;html=1;" parent="1" vertex="1">
          <mxGeometry x="1070" y="1050" width="120" height="60" as="geometry" />
        </mxCell>
        <mxCell id="IdlJoa7s4EMgATmkJgzL-49" value="Expost to CSV&lt;div&gt;US 02.06.05&lt;/div&gt;" style="rounded=0;whiteSpace=wrap;html=1;" parent="1" vertex="1">
          <mxGeometry x="1240" y="1050" width="120" height="60" as="geometry" />
        </mxCell>
        <mxCell id="IdlJoa7s4EMgATmkJgzL-50" value="Send Notifiation Screen&lt;div&gt;US 02.07.01 - 03&lt;/div&gt;" style="rounded=0;whiteSpace=wrap;html=1;" parent="1" vertex="1">
          <mxGeometry x="1390" y="1050" width="120" height="60" as="geometry" />
        </mxCell>
        <mxCell id="IdlJoa7s4EMgATmkJgzL-51" value="Select&amp;nbsp;&lt;div&gt;Group&lt;/div&gt;" style="rhombus;whiteSpace=wrap;html=1;" parent="1" vertex="1">
          <mxGeometry x="1410" y="1140" width="80" height="80" as="geometry" />
        </mxCell>
        <mxCell id="IdlJoa7s4EMgATmkJgzL-52" value="Notify all Waiting&lt;div&gt;US 02.07.01&lt;/div&gt;" style="rounded=0;whiteSpace=wrap;html=1;" parent="1" vertex="1">
          <mxGeometry x="1230" y="1240" width="120" height="60" as="geometry" />
        </mxCell>
        <mxCell id="IdlJoa7s4EMgATmkJgzL-53" value="Notify Select&lt;div&gt;US 02.07.02&lt;/div&gt;" style="rounded=0;whiteSpace=wrap;html=1;" parent="1" vertex="1">
          <mxGeometry x="1380" y="1240" width="120" height="60" as="geometry" />
        </mxCell>
        <mxCell id="IdlJoa7s4EMgATmkJgzL-54" value="Notify Cancelled&lt;div&gt;US 02.07.03&lt;/div&gt;" style="rounded=0;whiteSpace=wrap;html=1;" parent="1" vertex="1">
          <mxGeometry x="1530" y="1240" width="120" height="60" as="geometry" />
        </mxCell>
        <mxCell id="IdlJoa7s4EMgATmkJgzL-55" value="" style="endArrow=classic;html=1;rounded=0;exitX=0;exitY=0.5;exitDx=0;exitDy=0;entryX=0.67;entryY=0.01;entryDx=0;entryDy=0;entryPerimeter=0;" parent="1" source="IdlJoa7s4EMgATmkJgzL-51" target="IdlJoa7s4EMgATmkJgzL-52" edge="1">
          <mxGeometry width="50" height="50" relative="1" as="geometry">
            <mxPoint x="1320" y="1210" as="sourcePoint" />
            <mxPoint x="1370" y="1160" as="targetPoint" />
          </mxGeometry>
        </mxCell>
        <mxCell id="IdlJoa7s4EMgATmkJgzL-56" value="" style="endArrow=classic;html=1;rounded=0;entryX=0.5;entryY=0;entryDx=0;entryDy=0;" parent="1" target="IdlJoa7s4EMgATmkJgzL-54" edge="1">
          <mxGeometry width="50" height="50" relative="1" as="geometry">
            <mxPoint x="1490" y="1180" as="sourcePoint" />
            <mxPoint x="1540" y="1130" as="targetPoint" />
          </mxGeometry>
        </mxCell>
        <mxCell id="IdlJoa7s4EMgATmkJgzL-57" value="" style="endArrow=classic;html=1;rounded=0;" parent="1" edge="1">
          <mxGeometry width="50" height="50" relative="1" as="geometry">
            <mxPoint x="1450" y="1220" as="sourcePoint" />
            <mxPoint x="1450" y="1240" as="targetPoint" />
          </mxGeometry>
        </mxCell>
        <mxCell id="IdlJoa7s4EMgATmkJgzL-58" value="All Waiting" style="text;html=1;align=center;verticalAlign=middle;whiteSpace=wrap;rounded=0;" parent="1" vertex="1">
          <mxGeometry x="1280" y="1180" width="60" height="30" as="geometry" />
        </mxCell>
        <mxCell id="IdlJoa7s4EMgATmkJgzL-59" value="Selected" style="text;html=1;align=center;verticalAlign=middle;whiteSpace=wrap;rounded=0;" parent="1" vertex="1">
          <mxGeometry x="1460" y="1210" width="60" height="30" as="geometry" />
        </mxCell>
        <mxCell id="IdlJoa7s4EMgATmkJgzL-60" value="Cancelled" style="text;html=1;align=center;verticalAlign=middle;whiteSpace=wrap;rounded=0;" parent="1" vertex="1">
          <mxGeometry x="1540" y="1180" width="60" height="30" as="geometry" />
        </mxCell>
        <mxCell id="IdlJoa7s4EMgATmkJgzL-61" value="" style="endArrow=classic;html=1;rounded=0;entryX=0.357;entryY=0.003;entryDx=0;entryDy=0;entryPerimeter=0;" parent="1" target="IdlJoa7s4EMgATmkJgzL-50" edge="1">
          <mxGeometry width="50" height="50" relative="1" as="geometry">
            <mxPoint x="1240" y="980" as="sourcePoint" />
            <mxPoint x="1290" y="930" as="targetPoint" />
          </mxGeometry>
        </mxCell>
        <mxCell id="IdlJoa7s4EMgATmkJgzL-62" value="" style="endArrow=classic;html=1;rounded=0;exitX=0;exitY=0.5;exitDx=0;exitDy=0;entryX=0.17;entryY=0.043;entryDx=0;entryDy=0;entryPerimeter=0;" parent="1" source="IdlJoa7s4EMgATmkJgzL-47" target="IdlJoa7s4EMgATmkJgzL-48" edge="1">
          <mxGeometry width="50" height="50" relative="1" as="geometry">
            <mxPoint x="1200" y="1190" as="sourcePoint" />
            <mxPoint x="1250" y="1140" as="targetPoint" />
          </mxGeometry>
        </mxCell>
        <mxCell id="IdlJoa7s4EMgATmkJgzL-63" value="" style="endArrow=classic;html=1;rounded=0;exitX=0.5;exitY=1;exitDx=0;exitDy=0;entryX=0.147;entryY=-0.023;entryDx=0;entryDy=0;entryPerimeter=0;" parent="1" source="IdlJoa7s4EMgATmkJgzL-47" target="IdlJoa7s4EMgATmkJgzL-49" edge="1">
          <mxGeometry width="50" height="50" relative="1" as="geometry">
            <mxPoint x="1200" y="1190" as="sourcePoint" />
            <mxPoint x="1250" y="1140" as="targetPoint" />
          </mxGeometry>
        </mxCell>
        <mxCell id="IdlJoa7s4EMgATmkJgzL-64" value="Text" style="text;html=1;align=center;verticalAlign=middle;whiteSpace=wrap;rounded=0;" parent="1" vertex="1">
          <mxGeometry x="1200" y="1150" width="60" height="30" as="geometry" />
        </mxCell>
        <mxCell id="IdlJoa7s4EMgATmkJgzL-65" value="Cancel Entrant" style="text;html=1;align=center;verticalAlign=middle;whiteSpace=wrap;rounded=0;" parent="1" vertex="1">
          <mxGeometry x="1060" y="990" width="60" height="30" as="geometry" />
        </mxCell>
        <mxCell id="IdlJoa7s4EMgATmkJgzL-66" value="Export" style="text;html=1;align=center;verticalAlign=middle;whiteSpace=wrap;rounded=0;" parent="1" vertex="1">
          <mxGeometry x="1220" y="1010" width="60" height="30" as="geometry" />
        </mxCell>
        <mxCell id="IdlJoa7s4EMgATmkJgzL-67" value="Send Message" style="text;html=1;align=center;verticalAlign=middle;whiteSpace=wrap;rounded=0;" parent="1" vertex="1">
          <mxGeometry x="1360" y="990" width="60" height="30" as="geometry" />
        </mxCell>
        <mxCell id="IdlJoa7s4EMgATmkJgzL-68" value="" style="endArrow=classic;html=1;rounded=0;exitX=1;exitY=0.5;exitDx=0;exitDy=0;entryX=0;entryY=0.75;entryDx=0;entryDy=0;" parent="1" source="IdlJoa7s4EMgATmkJgzL-43" target="IdlJoa7s4EMgATmkJgzL-46" edge="1">
          <mxGeometry width="50" height="50" relative="1" as="geometry">
            <mxPoint x="1200" y="1190" as="sourcePoint" />
            <mxPoint x="1250" y="1140" as="targetPoint" />
          </mxGeometry>
        </mxCell>
        <mxCell id="IdlJoa7s4EMgATmkJgzL-69" value="Text" style="text;html=1;align=center;verticalAlign=middle;whiteSpace=wrap;rounded=0;" parent="1" vertex="1">
          <mxGeometry x="1200" y="1150" width="60" height="30" as="geometry" />
        </mxCell>
        <mxCell id="IdlJoa7s4EMgATmkJgzL-71" value="" style="endArrow=classic;html=1;rounded=0;entryX=0.5;entryY=0;entryDx=0;entryDy=0;" parent="1" target="IdlJoa7s4EMgATmkJgzL-47" edge="1">
          <mxGeometry width="50" height="50" relative="1" as="geometry">
            <mxPoint x="1200" y="901" as="sourcePoint" />
            <mxPoint x="1250" y="1140" as="targetPoint" />
          </mxGeometry>
        </mxCell>
        <mxCell id="IdlJoa7s4EMgATmkJgzL-72" value="" style="endArrow=classic;html=1;rounded=0;entryX=0.362;entryY=0.037;entryDx=0;entryDy=0;entryPerimeter=0;exitX=0.362;exitY=1.043;exitDx=0;exitDy=0;exitPerimeter=0;" parent="1" source="IdlJoa7s4EMgATmkJgzL-44" target="IdlJoa7s4EMgATmkJgzL-45" edge="1">
          <mxGeometry width="50" height="50" relative="1" as="geometry">
            <mxPoint x="800" y="1212" as="sourcePoint" />
            <mxPoint x="1040" y="1240" as="targetPoint" />
            <Array as="points" />
          </mxGeometry>
        </mxCell>
        <mxCell id="IdlJoa7s4EMgATmkJgzL-73" value="" style="endArrow=classic;html=1;rounded=0;exitX=1;exitY=0.5;exitDx=0;exitDy=0;" parent="1" source="IdlJoa7s4EMgATmkJgzL-33" edge="1">
          <mxGeometry width="50" height="50" relative="1" as="geometry">
            <mxPoint x="1200" y="590" as="sourcePoint" />
            <mxPoint x="1210" y="410" as="targetPoint" />
          </mxGeometry>
        </mxCell>
        <mxCell id="IdlJoa7s4EMgATmkJgzL-74" value="" style="endArrow=classic;html=1;rounded=0;entryX=0.597;entryY=0.063;entryDx=0;entryDy=0;entryPerimeter=0;" parent="1" target="IdlJoa7s4EMgATmkJgzL-46" edge="1">
          <mxGeometry width="50" height="50" relative="1" as="geometry">
            <mxPoint x="1200" y="410" as="sourcePoint" />
            <mxPoint x="1250" y="540" as="targetPoint" />
          </mxGeometry>
        </mxCell>
        <mxCell id="IdlJoa7s4EMgATmkJgzL-75" value="View list" style="text;html=1;align=center;verticalAlign=middle;whiteSpace=wrap;rounded=0;" parent="1" vertex="1">
          <mxGeometry x="1200" y="610" width="60" height="30" as="geometry" />
        </mxCell>
        <mxCell id="IdlJoa7s4EMgATmkJgzL-76" value="" style="endArrow=classic;html=1;rounded=0;entryX=0.415;entryY=-0.037;entryDx=0;entryDy=0;entryPerimeter=0;" parent="1" target="IdlJoa7s4EMgATmkJgzL-44" edge="1">
          <mxGeometry width="50" height="50" relative="1" as="geometry">
            <mxPoint x="900" y="1080" as="sourcePoint" />
            <mxPoint x="950" y="1030" as="targetPoint" />
          </mxGeometry>
        </mxCell>
        <mxCell id="IdlJoa7s4EMgATmkJgzL-77" value="" style="endArrow=classic;html=1;rounded=0;exitX=0.885;exitY=0.643;exitDx=0;exitDy=0;exitPerimeter=0;" parent="1" source="IdlJoa7s4EMgATmkJgzL-33" edge="1">
          <mxGeometry width="50" height="50" relative="1" as="geometry">
            <mxPoint x="1200" y="690" as="sourcePoint" />
            <mxPoint x="910" y="480" as="targetPoint" />
          </mxGeometry>
        </mxCell>
        <mxCell id="IdlJoa7s4EMgATmkJgzL-78" value="Run Lottery" style="text;html=1;align=center;verticalAlign=middle;whiteSpace=wrap;rounded=0;" parent="1" vertex="1">
          <mxGeometry x="860" y="430" width="60" height="30" as="geometry" />
        </mxCell>
        <mxCell id="IdlJoa7s4EMgATmkJgzL-79" value="" style="endArrow=classic;html=1;rounded=0;entryX=0.5;entryY=0;entryDx=0;entryDy=0;" parent="1" target="IdlJoa7s4EMgATmkJgzL-38" edge="1">
          <mxGeometry width="50" height="50" relative="1" as="geometry">
            <mxPoint x="940" y="540" as="sourcePoint" />
            <mxPoint x="990" y="490" as="targetPoint" />
          </mxGeometry>
        </mxCell>
        <mxCell id="IdlJoa7s4EMgATmkJgzL-80" value="" style="endArrow=classic;html=1;rounded=0;entryX=0.5;entryY=0;entryDx=0;entryDy=0;" parent="1" target="IdlJoa7s4EMgATmkJgzL-39" edge="1">
          <mxGeometry width="50" height="50" relative="1" as="geometry">
            <mxPoint x="940" y="630" as="sourcePoint" />
            <mxPoint x="990" y="580" as="targetPoint" />
          </mxGeometry>
        </mxCell>
        <mxCell id="IdlJoa7s4EMgATmkJgzL-81" value="" style="endArrow=classic;html=1;rounded=0;entryX=0.417;entryY=0.167;entryDx=0;entryDy=0;entryPerimeter=0;" parent="1" target="IdlJoa7s4EMgATmkJgzL-40" edge="1">
          <mxGeometry width="50" height="50" relative="1" as="geometry">
            <mxPoint x="930" y="725" as="sourcePoint" />
            <mxPoint x="980" y="675" as="targetPoint" />
          </mxGeometry>
        </mxCell>
        <mxCell id="IdlJoa7s4EMgATmkJgzL-82" value="" style="endArrow=classic;html=1;rounded=0;entryX=0.413;entryY=0.017;entryDx=0;entryDy=0;entryPerimeter=0;" parent="1" target="IdlJoa7s4EMgATmkJgzL-41" edge="1">
          <mxGeometry width="50" height="50" relative="1" as="geometry">
            <mxPoint x="930" y="820" as="sourcePoint" />
            <mxPoint x="980" y="770" as="targetPoint" />
          </mxGeometry>
        </mxCell>
        <mxCell id="IdlJoa7s4EMgATmkJgzL-83" value="" style="endArrow=classic;html=1;rounded=0;" parent="1" edge="1">
          <mxGeometry width="50" height="50" relative="1" as="geometry">
            <mxPoint x="930" y="910" as="sourcePoint" />
            <mxPoint x="930" y="950" as="targetPoint" />
          </mxGeometry>
        </mxCell>
        <mxCell id="IdlJoa7s4EMgATmkJgzL-84" value="" style="endArrow=classic;html=1;rounded=0;entryX=0.5;entryY=0;entryDx=0;entryDy=0;" parent="1" target="IdlJoa7s4EMgATmkJgzL-43" edge="1">
          <mxGeometry width="50" height="50" relative="1" as="geometry">
            <mxPoint x="940" y="1010" as="sourcePoint" />
            <mxPoint x="990" y="960" as="targetPoint" />
          </mxGeometry>
        </mxCell>
        <mxCell id="IdlJoa7s4EMgATmkJgzL-85" value="" style="endArrow=classic;html=1;rounded=0;exitX=0;exitY=0.5;exitDx=0;exitDy=0;entryX=0.5;entryY=0;entryDx=0;entryDy=0;" parent="1" source="IdlJoa7s4EMgATmkJgzL-33" target="IdlJoa7s4EMgATmkJgzL-34" edge="1">
          <mxGeometry width="50" height="50" relative="1" as="geometry">
            <mxPoint x="500" y="370" as="sourcePoint" />
            <mxPoint x="550" y="320" as="targetPoint" />
          </mxGeometry>
        </mxCell>
        <mxCell id="IdlJoa7s4EMgATmkJgzL-86" value="" style="endArrow=classic;html=1;rounded=0;entryX=0.59;entryY=-0.03;entryDx=0;entryDy=0;entryPerimeter=0;" parent="1" source="IdlJoa7s4EMgATmkJgzL-33" target="IdlJoa7s4EMgATmkJgzL-35" edge="1">
          <mxGeometry width="50" height="50" relative="1" as="geometry">
            <mxPoint x="570" y="410" as="sourcePoint" />
            <mxPoint x="620" y="360" as="targetPoint" />
          </mxGeometry>
        </mxCell>
        <mxCell id="IdlJoa7s4EMgATmkJgzL-87" value="" style="endArrow=classic;html=1;rounded=0;entryX=0.417;entryY=0;entryDx=0;entryDy=0;entryPerimeter=0;" parent="1" target="IdlJoa7s4EMgATmkJgzL-36" edge="1">
          <mxGeometry width="50" height="50" relative="1" as="geometry">
            <mxPoint x="740" y="450" as="sourcePoint" />
            <mxPoint x="790" y="400" as="targetPoint" />
          </mxGeometry>
        </mxCell>
        <mxCell id="IdlJoa7s4EMgATmkJgzL-88" value="view Waiting list" style="text;html=1;align=center;verticalAlign=middle;whiteSpace=wrap;rounded=0;" parent="1" vertex="1">
          <mxGeometry x="540" y="420" width="60" height="30" as="geometry" />
        </mxCell>
        <mxCell id="IdlJoa7s4EMgATmkJgzL-89" value="view maps" style="text;html=1;align=center;verticalAlign=middle;whiteSpace=wrap;rounded=0;" parent="1" vertex="1">
          <mxGeometry x="640" y="430" width="60" height="30" as="geometry" />
        </mxCell>
        <mxCell id="IdlJoa7s4EMgATmkJgzL-90" value="Update Poster" style="text;html=1;align=center;verticalAlign=middle;whiteSpace=wrap;rounded=0;" parent="1" vertex="1">
          <mxGeometry x="760" y="440" width="60" height="30" as="geometry" />
        </mxCell>
        <mxCell id="IdlJoa7s4EMgATmkJgzL-91" value="Manage Events&amp;nbsp;" style="text;html=1;align=center;verticalAlign=middle;whiteSpace=wrap;rounded=0;" parent="1" vertex="1">
          <mxGeometry x="660" y="220" width="60" height="30" as="geometry" />
        </mxCell>
        <mxCell id="IdlJoa7s4EMgATmkJgzL-92" value="" style="endArrow=classic;html=1;rounded=0;entryX=0;entryY=0;entryDx=0;entryDy=0;exitX=1;exitY=0.5;exitDx=0;exitDy=0;" parent="1" source="IdlJoa7s4EMgATmkJgzL-12" target="IdlJoa7s4EMgATmkJgzL-32" edge="1">
          <mxGeometry width="50" height="50" relative="1" as="geometry">
            <mxPoint x="600" y="220" as="sourcePoint" />
            <mxPoint x="650" y="170" as="targetPoint" />
          </mxGeometry>
        </mxCell>
        <mxCell id="IdlJoa7s4EMgATmkJgzL-93" value="" style="endArrow=classic;html=1;rounded=0;entryX=0.5;entryY=0;entryDx=0;entryDy=0;" parent="1" target="IdlJoa7s4EMgATmkJgzL-33" edge="1">
          <mxGeometry width="50" height="50" relative="1" as="geometry">
            <mxPoint x="740" y="340" as="sourcePoint" />
            <mxPoint x="790" y="290" as="targetPoint" />
          </mxGeometry>
        </mxCell>
        <mxCell id="IdlJoa7s4EMgATmkJgzL-94" value="" style="endArrow=classic;html=1;rounded=0;entryX=0.5;entryY=0;entryDx=0;entryDy=0;" parent="1" target="IdlJoa7s4EMgATmkJgzL-51" edge="1">
          <mxGeometry width="50" height="50" relative="1" as="geometry">
            <mxPoint x="1450" y="1110" as="sourcePoint" />
            <mxPoint x="1500" y="1060" as="targetPoint" />
          </mxGeometry>
        </mxCell>
        <mxCell id="iWzdi4J0pFdHBmvqIkB2-3" value="&lt;b&gt;&lt;u&gt;&lt;font style=&quot;font-size: 18px;&quot;&gt;ORGANIZER&lt;/font&gt;&lt;/u&gt;&lt;/b&gt;" style="text;html=1;align=center;verticalAlign=middle;whiteSpace=wrap;rounded=0;" vertex="1" parent="1">
          <mxGeometry x="410" y="25" width="60" height="30" as="geometry" />
        </mxCell>
      </root>
    </mxGraphModel>
  </diagram>
</mxfile>
